<?xml version="1.0" encoding="utf-8" ?>
<svg baseProfile="tiny" height="1024" version="1.2" width="1024" xmlns="http://www.w3.org/2000/svg" xmlns:ev="http://www.w3.org/2001/xml-events" xmlns:xlink="http://www.w3.org/1999/xlink"><defs /><polygon fill="black" points="649,248 636,240 622,236 591,238 339,308 318,316 304,328 296,341 291,360 298,414 298,612 306,637 323,657 338,666 356,671 633,671 659,662 675,648 687,628 691,612 691,440 685,423 675,412 655,404 416,403 662,332 673,319 674,300 666,272" /><polygon fill="white" points="489,597 507,601 516,617 512,632 506,638 495,642 479,637 471,625 473,609 480,601" /><polygon fill="white" points="484,436 510,436 536,445 552,459 562,483 560,504 552,521 517,553 508,574 500,580 486,580 480,577 475,570 474,554 482,536 515,504 515,484 503,476 486,476 474,482 464,495 453,503 438,500 429,488 430,474 447,452 463,442" /><polygon fill="white" points="323,341 330,336 357,328 373,327 422,372 422,376 374,391 363,390 324,353" /><polygon fill="white" points="419,314 428,308 477,297 522,335 528,346 523,350 468,364 420,319" /><polygon fill="white" points="525,285 539,277 582,267 633,316 626,321 576,334 543,307 525,289" /></svg>